<?xml version="1.0" standalone="no"?>
<!DOCTYPE svg PUBLIC "-//W3C//DTD SVG 20010904//EN"
 "http://www.w3.org/TR/2001/REC-SVG-20010904/DTD/svg10.dtd">
<svg version="1.0" xmlns="http://www.w3.org/2000/svg"
 width="572.000000pt" height="550.000000pt" viewBox="0 0 572.000000 550.000000"
 preserveAspectRatio="xMidYMid meet">

<g transform="translate(0.000000,550.000000) scale(0.100000,-0.100000)"
fill="#000000" stroke="none">
<path d="M828 3663 c-2 -544 -2 -1026 -1 -1073 2 -96 -6 -83 129 -192 33 -26
91 -74 130 -105 126 -103 157 -129 264 -214 58 -47 114 -92 125 -101 11 -10
74 -61 140 -114 66 -52 129 -103 140 -112 48 -39 140 -117 145 -122 3 -3 32
-25 65 -50 33 -24 101 -79 152 -122 51 -43 96 -78 102 -78 12 0 19 166 8 200
-4 14 -21 34 -37 45 -26 18 -418 332 -430 345 -3 3 -21 17 -40 32 -19 14 -44
34 -55 44 -11 11 -47 41 -80 69 -33 27 -66 55 -73 62 -8 7 -22 18 -33 24 -35
18 -41 58 -50 289 -15 413 -29 684 -39 745 -15 84 -18 123 -35 450 -16 295
-35 610 -38 610 -1 1 -64 48 -140 105 -76 58 -164 123 -196 145 -31 22 -75 55
-96 73 -22 17 -43 32 -47 32 -5 0 -9 -444 -10 -987z"/>
<path d="M4845 4618 c-22 -16 -48 -35 -58 -43 -9 -8 -21 -15 -26 -15 -5 0 -11
-4 -13 -8 -1 -5 -23 -23 -48 -40 -51 -37 -117 -87 -140 -105 -8 -7 -47 -36
-86 -66 -83 -61 -80 -53 -89 -269 -18 -429 -38 -770 -45 -787 -13 -31 -24
-240 -46 -855 -4 -109 -11 -192 -18 -201 -6 -9 -40 -40 -76 -69 -36 -30 -67
-57 -70 -60 -6 -8 -409 -332 -460 -370 -19 -14 -67 -54 -107 -89 l-73 -63 0
-99 c0 -76 3 -99 13 -99 8 0 39 21 69 48 63 54 67 57 168 136 41 33 91 73 111
90 43 37 69 59 134 111 27 22 61 50 75 62 14 11 57 46 95 77 39 31 90 73 114
94 24 20 54 43 65 51 12 8 23 18 26 21 3 3 39 33 80 65 41 32 77 62 80 65 4 5
80 66 120 97 8 6 67 54 130 105 l115 94 5 215 c5 173 1 1931 -4 1935 0 1 -19
-12 -41 -28z"/>
<path d="M1404 4058 c10 -233 24 -505 32 -633 7 -115 18 -145 56 -145 10 0 18
-4 18 -10 0 -5 5 -10 10 -10 6 0 34 -15 63 -33 82 -53 157 -97 222 -132 33
-18 78 -43 100 -55 22 -13 65 -36 95 -53 30 -16 60 -33 65 -37 6 -4 31 -19 58
-34 84 -47 140 -78 189 -107 27 -16 50 -29 52 -29 2 0 33 -17 67 -38 35 -22
84 -50 109 -64 25 -14 61 -34 80 -45 186 -105 209 -117 212 -112 2 2 1 172 -2
378 l-5 373 -145 95 c-80 52 -152 97 -160 101 -8 3 -59 34 -113 69 -54 35
-102 63 -107 63 -6 0 -10 5 -10 10 0 6 -5 10 -12 10 -6 0 -26 11 -44 25 -18
14 -36 25 -39 25 -4 0 -25 12 -48 28 -23 15 -50 32 -58 37 -45 28 -389 275
-429 308 -30 24 -251 177 -257 177 -3 0 -3 -73 1 -162z"/>
<path d="M4274 4192 c-17 -15 -70 -54 -119 -87 -75 -52 -132 -92 -170 -123 -5
-4 -26 -19 -45 -32 -19 -13 -41 -30 -48 -37 -16 -16 -319 -223 -326 -223 -9 0
-204 -119 -283 -172 -40 -26 -75 -48 -79 -48 -3 0 -34 -19 -68 -43 -33 -24
-68 -47 -76 -50 -8 -4 -31 -17 -50 -29 -20 -13 -50 -32 -68 -43 -17 -11 -35
-27 -38 -35 -4 -8 -9 -176 -12 -373 -5 -363 -2 -396 30 -369 7 5 42 26 78 45
88 46 143 77 155 87 6 4 26 17 45 27 110 61 176 99 246 140 27 17 71 42 97 57
26 14 68 38 95 53 26 15 65 36 87 47 22 12 42 23 45 26 8 9 135 81 239 137 36
19 91 53 122 74 32 21 60 39 64 39 3 0 23 11 44 24 38 24 38 25 45 108 7 75
14 235 33 676 3 87 2 152 -3 152 -5 0 -23 -13 -40 -28z"/>
<path d="M2100 3805 c0 -5 19 -19 42 -30 23 -11 107 -62 186 -112 79 -51 146
-93 149 -93 2 0 23 -13 46 -29 112 -76 297 -189 300 -183 2 4 1 97 -2 208 -5
180 -8 202 -25 220 -21 20 18 18 -526 27 -108 1 -170 -2 -170 -8z"/>
<path d="M3297 3810 l-339 -5 -22 -26 c-22 -25 -23 -38 -29 -225 -3 -110 -4
-201 -1 -203 2 -3 14 5 27 16 12 11 29 23 37 26 8 4 44 25 79 47 34 22 66 40
70 40 4 0 16 8 27 18 22 20 270 182 279 182 4 0 25 13 48 29 23 15 65 40 93
54 27 14 56 33 63 41 8 9 12 15 10 14 -2 -1 -156 -5 -342 -8z"/>
<path d="M1468 3203 c-2 -5 -1 -82 3 -173 4 -91 12 -293 18 -450 5 -157 14
-297 20 -312 5 -14 38 -50 73 -78 35 -29 72 -59 83 -69 139 -113 192 -157 201
-166 7 -5 35 -28 64 -50 57 -43 222 -176 230 -185 3 -3 31 -24 62 -48 32 -23
60 -52 63 -65 2 -12 6 -189 7 -394 3 -423 -9 -369 103 -448 31 -22 62 -45 68
-50 21 -19 361 -272 385 -286 14 -9 25 -10 30 -4 4 6 41 35 82 66 73 54 119
88 250 188 36 28 83 63 105 79 22 15 57 40 78 56 l37 27 0 385 c0 356 1 385
18 402 10 9 53 44 96 77 67 52 356 283 481 385 24 19 69 55 100 79 31 24 67
63 81 86 22 39 24 51 24 186 0 79 4 194 9 254 15 178 23 515 12 515 -5 0 -53
-25 -106 -55 -54 -30 -99 -55 -102 -55 -2 0 -27 -15 -56 -33 -29 -18 -74 -43
-102 -57 -27 -14 -87 -48 -132 -77 -46 -29 -86 -53 -90 -53 -5 0 -35 -16 -68
-36 -60 -37 -93 -56 -162 -95 -21 -12 -42 -25 -48 -29 -5 -4 -49 -28 -96 -53
-48 -25 -121 -66 -163 -91 -42 -25 -78 -46 -81 -46 -2 0 -29 -16 -59 -35 -30
-19 -59 -35 -64 -35 -6 0 -14 -8 -18 -17 -5 -10 -11 -220 -14 -468 l-5 -450
-25 0 -25 0 -3 453 c-2 345 -5 457 -15 466 -16 17 -136 86 -148 86 -5 0 -9 5
-9 10 0 6 -5 10 -11 10 -6 0 -23 8 -37 19 -15 10 -52 32 -82 48 -30 17 -82 45
-115 63 -33 18 -64 36 -70 40 -14 11 -78 47 -175 98 -47 25 -97 53 -112 63
-14 11 -29 19 -32 19 -3 0 -40 20 -82 45 -41 25 -80 45 -85 45 -5 0 -9 3 -9 8
0 4 -15 13 -32 21 -18 8 -50 25 -71 38 -21 13 -54 33 -73 44 -209 118 -200
114 -206 102z m277 -473 c17 -8 44 -25 61 -37 17 -13 36 -23 42 -23 7 0 12 -4
12 -10 0 -5 5 -10 12 -10 6 0 19 -6 27 -14 17 -15 157 -102 231 -144 25 -14
61 -34 80 -45 19 -11 52 -29 72 -40 47 -26 58 -67 58 -226 0 -132 -6 -144 -52
-98 -13 13 -62 56 -111 96 -104 86 -112 97 -137 190 -11 40 -27 83 -36 96 -8
13 -57 54 -107 91 -51 37 -93 71 -95 76 -2 4 -9 8 -15 8 -23 1 -99 79 -93 95
3 9 9 15 13 13 5 -2 22 -10 38 -18z m2299 11 c11 -17 -36 -61 -147 -137 -135
-94 -186 -139 -193 -173 -25 -112 -38 -141 -83 -188 -80 -82 -223 -198 -232
-188 -3 2 -1 41 3 87 3 46 7 117 7 158 1 82 6 90 71 123 19 9 53 28 75 42 22
14 47 28 55 32 8 3 26 14 40 24 14 9 53 32 85 50 33 18 81 48 106 66 26 18 50
33 53 33 4 0 28 15 54 33 67 47 95 57 106 38z m-1333 -1823 c4 -18 10 -61 13
-95 8 -74 2 -78 -64 -33 -25 16 -63 42 -85 56 -62 42 -97 78 -90 95 5 12 25
15 113 13 l107 -3 6 -33z m537 20 c2 -10 -16 -31 -50 -56 -113 -83 -179 -124
-192 -119 -13 5 -9 47 16 149 l9 37 67 4 c118 6 147 4 150 -15z"/>
</g>
</svg>
